TITLE ""
FILE "1Q_t_0188-0200.mp3" MP3
  TRACK 01 AUDIO
    TITLE "1Q_t_0188-0200_01"
    INDEX 01 00:00:00
  TRACK 02 AUDIO
    TITLE "1Q_t_0188-0200_02"
    INDEX 01 00:01:08
  TRACK 03 AUDIO
    TITLE "1Q_t_0188-0200_03"
    INDEX 01 00:01:23
  TRACK 04 AUDIO
    TITLE "1Q_t_0188-0200_04"
    INDEX 01 00:03:69
  TRACK 05 AUDIO
    TITLE "1Q_t_0188-0200_05"
    INDEX 01 00:04:10
  TRACK 06 AUDIO
    TITLE "1Q_t_0188-0200_06"
    INDEX 01 00:08:37
  TRACK 07 AUDIO
    TITLE "1Q_t_0188-0200_07"
    INDEX 01 00:09:17
  TRACK 08 AUDIO
    TITLE "1Q_t_0188-0200_08"
    INDEX 01 00:10:44
  TRACK 09 AUDIO
    TITLE "1Q_t_0188-0200_09"
    INDEX 01 00:10:60
  TRACK 10 AUDIO
    TITLE "1Q_t_0188-0200_10"
    INDEX 01 00:12:19
  TRACK 11 AUDIO
    TITLE "1Q_t_0188-0200_11"
    INDEX 01 00:12:37
  TRACK 12 AUDIO
    TITLE "1Q_t_0188-0200_12"
    INDEX 01 00:17:64
  TRACK 13 AUDIO
    TITLE "1Q_t_0188-0200_13"
    INDEX 01 00:18:42
  TRACK 14 AUDIO
    TITLE "1Q_t_0188-0200_14"
    INDEX 01 00:19:55
  TRACK 15 AUDIO
    TITLE "1Q_t_0188-0200_15"
    INDEX 01 00:19:70
  TRACK 16 AUDIO
    TITLE "1Q_t_0188-0200_16"
    INDEX 01 00:22:63
  TRACK 17 AUDIO
    TITLE "1Q_t_0188-0200_17"
    INDEX 01 00:23:03
  TRACK 18 AUDIO
    TITLE "1Q_t_0188-0200_18"
    INDEX 01 00:27:44
  TRACK 19 AUDIO
    TITLE "1Q_t_0188-0200_19"
    INDEX 01 00:28:22
  TRACK 20 AUDIO
    TITLE "1Q_t_0188-0200_20"
    INDEX 01 00:29:41
  TRACK 21 AUDIO
    TITLE "1Q_t_0188-0200_21"
    INDEX 01 00:29:57
  TRACK 22 AUDIO
    TITLE "1Q_t_0188-0200_22"
    INDEX 01 00:31:05
  TRACK 23 AUDIO
    TITLE "1Q_t_0188-0200_23"
    INDEX 01 00:31:17
  TRACK 24 AUDIO
    TITLE "1Q_t_0188-0200_24"
    INDEX 01 00:35:11
  TRACK 25 AUDIO
    TITLE "1Q_t_0188-0200_25"
    INDEX 01 00:35:65
  TRACK 26 AUDIO
    TITLE "1Q_t_0188-0200_26"
    INDEX 01 00:37:06
  TRACK 27 AUDIO
    TITLE "1Q_t_0188-0200_27"
    INDEX 01 00:37:21
  TRACK 28 AUDIO
    TITLE "1Q_t_0188-0200_28"
    INDEX 01 00:38:30
  TRACK 29 AUDIO
    TITLE "1Q_t_0188-0200_29"
    INDEX 01 00:38:46
  TRACK 30 AUDIO
    TITLE "1Q_t_0188-0200_30"
    INDEX 01 00:42:56
  TRACK 31 AUDIO
    TITLE "1Q_t_0188-0200_31"
    INDEX 01 00:43:36
  TRACK 32 AUDIO
    TITLE "1Q_t_0188-0200_32"
    INDEX 01 00:44:33
  TRACK 33 AUDIO
    TITLE "1Q_t_0188-0200_33"
    INDEX 01 00:44:51
  TRACK 34 AUDIO
    TITLE "1Q_t_0188-0200_34"
    INDEX 01 00:47:14
  TRACK 35 AUDIO
    TITLE "1Q_t_0188-0200_35"
    INDEX 01 00:47:27
  TRACK 36 AUDIO
    TITLE "1Q_t_0188-0200_36"
    INDEX 01 00:53:07
  TRACK 37 AUDIO
    TITLE "1Q_t_0188-0200_37"
    INDEX 01 00:53:61
  TRACK 38 AUDIO
    TITLE "1Q_t_0188-0200_38"
    INDEX 01 00:55:09
  TRACK 39 AUDIO
    TITLE "1Q_t_0188-0200_39"
    INDEX 01 00:55:27
  TRACK 40 AUDIO
    TITLE "1Q_t_0188-0200_40"
    INDEX 01 00:58:04
  TRACK 41 AUDIO
    TITLE "1Q_t_0188-0200_41"
    INDEX 01 00:58:18
  TRACK 42 AUDIO
    TITLE "1Q_t_0188-0200_42"
    INDEX 01 01:04:16
  TRACK 43 AUDIO
    TITLE "1Q_t_0188-0200_43"
    INDEX 01 01:04:69
  TRACK 44 AUDIO
    TITLE "1Q_t_0188-0200_44"
    INDEX 01 01:06:19
  TRACK 45 AUDIO
    TITLE "1Q_t_0188-0200_45"
    INDEX 01 01:06:39
  TRACK 46 AUDIO
    TITLE "1Q_t_0188-0200_46"
    INDEX 01 01:09:70
  TRACK 47 AUDIO
    TITLE "1Q_t_0188-0200_47"
    INDEX 01 01:10:11
  TRACK 48 AUDIO
    TITLE "1Q_t_0188-0200_48"
    INDEX 01 01:14:54
  TRACK 49 AUDIO
    TITLE "1Q_t_0188-0200_49"
    INDEX 01 01:15:32
  TRACK 50 AUDIO
    TITLE "1Q_t_0188-0200_50"
    INDEX 01 01:16:31
  TRACK 51 AUDIO
    TITLE "1Q_t_0188-0200_51"
    INDEX 01 01:16:47
  TRACK 52 AUDIO
    TITLE "1Q_t_0188-0200_52"
    INDEX 01 01:17:64
  TRACK 53 AUDIO
    TITLE "1Q_t_0188-0200_53"
    INDEX 01 01:18:03
  TRACK 54 AUDIO
    TITLE "1Q_t_0188-0200_54"
    INDEX 01 01:22:42
  TRACK 55 AUDIO
    TITLE "1Q_t_0188-0200_55"
    INDEX 01 01:23:19
  TRACK 56 AUDIO
    TITLE "1Q_t_0188-0200_56"
    INDEX 01 01:24:42
  TRACK 57 AUDIO
    TITLE "1Q_t_0188-0200_57"
    INDEX 01 01:24:58
  TRACK 58 AUDIO
    TITLE "1Q_t_0188-0200_58"
    INDEX 01 01:26:04
  TRACK 59 AUDIO
    TITLE "1Q_t_0188-0200_59"
    INDEX 01 01:26:18
  TRACK 60 AUDIO
    TITLE "1Q_t_0188-0200_60"
    INDEX 01 01:32:38
  TRACK 61 AUDIO
    TITLE "1Q_t_0188-0200_61"
    INDEX 01 01:33:18
  TRACK 62 AUDIO
    TITLE "1Q_t_0188-0200_62"
    INDEX 01 01:34:19
  TRACK 63 AUDIO
    TITLE "1Q_t_0188-0200_63"
    INDEX 01 01:34:72
  TRACK 64 AUDIO
    TITLE "1Q_t_0188-0200_64"
    INDEX 01 01:36:14
  TRACK 65 AUDIO
    TITLE "1Q_t_0188-0200_65"
    INDEX 01 01:36:32
  TRACK 66 AUDIO
    TITLE "1Q_t_0188-0200_66"
    INDEX 01 01:39:01
  TRACK 67 AUDIO
    TITLE "1Q_t_0188-0200_67"
    INDEX 01 01:39:16
  TRACK 68 AUDIO
    TITLE "1Q_t_0188-0200_68"
    INDEX 01 01:45:13
  TRACK 69 AUDIO
    TITLE "1Q_t_0188-0200_69"
    INDEX 01 01:45:68
  TRACK 70 AUDIO
    TITLE "1Q_t_0188-0200_70"
    INDEX 01 01:47:08
  TRACK 71 AUDIO
    TITLE "1Q_t_0188-0200_71"
    INDEX 01 01:47:26
  TRACK 72 AUDIO
    TITLE "1Q_t_0188-0200_72"
    INDEX 01 01:49:70
  TRACK 73 AUDIO
    TITLE "1Q_t_0188-0200_73"
    INDEX 01 01:50:10
  TRACK 74 AUDIO
    TITLE "1Q_t_0188-0200_74"
    INDEX 01 01:56:52
  TRACK 75 AUDIO
    TITLE "1Q_t_0188-0200_75"
    INDEX 01 01:57:30
  TRACK 76 AUDIO
    TITLE "1Q_t_0188-0200_76"
    INDEX 01 01:58:53
  TRACK 77 AUDIO
    TITLE "1Q_t_0188-0200_77"
    INDEX 01 01:58:71
  TRACK 78 AUDIO
    TITLE "1Q_t_0188-0200_78"
    INDEX 01 02:00:48
  TRACK 79 AUDIO
    TITLE "1Q_t_0188-0200_79"
    INDEX 01 02:00:62
  TRACK 80 AUDIO
    TITLE "1Q_t_0188-0200_80"
    INDEX 01 02:06:17
